<svg version="1.0" xmlns="http://www.w3.org/2000/svg" width="100.000000pt" height="100.000000pt" viewBox="0 0 100.000000 100.000000" preserveAspectRatio="xMidYMid meet">
  <metadata>
Created by potrace 1.16, written by Peter Selinger 2001-2019
</metadata>
  <g transform="translate(0.000000,100.000000) scale(0.100000,-0.100000)" fill="#FF0000" stroke="none">
    <path d="M284 880 c-153 -88 -211 -126 -216 -142 -8 -29 -10 -426 -2 -466 5
-27 27 -42 218 -151 116 -67 215 -121 219 -121 8 0 339 187 399 226 l38 24 0
110 c0 75 -4 110 -11 110 -7 0 -27 -9 -45 -21 -33 -20 -34 -23 -34 -83 0 -47
-4 -67 -17 -78 -25 -22 -318 -188 -332 -188 -11 0 -314 172 -338 192 -18 15
-18 401 0 416 24 20 327 192 338 192 14 0 307 -166 332 -188 14 -12 17 -32 17
-104 0 -50 4 -88 10 -88 5 0 25 8 45 17 l35 17 0 98 0 98 -37 23 c-85 53 -391
227 -400 227 -5 0 -104 -54 -219 -120z" />
    <path d="M375 755 c-60 -36 -115 -71 -123 -79 -17 -16 -3 -27 144 -110 72 -40
107 -54 120 -49 10 4 56 29 101 55 44 26 84 48 87 48 3 0 6 -53 6 -118 l0
-118 -102 -58 -101 -58 -36 17 c-20 9 -66 35 -103 56 l-68 40 0 78 0 77 -40
23 -40 22 0 -123 0 -123 132 -75 c73 -41 139 -76 148 -78 8 -1 75 33 148 76
l133 78 0 164 0 164 -39 23 -40 24 -100 -57 -101 -56 -50 28 c-28 15 -51 33
-51 40 0 8 23 25 51 40 43 22 56 24 76 15 21 -9 31 -8 59 10 19 11 34 22 34
24 0 8 -108 65 -121 64 -8 0 -63 -29 -124 -64z" />
  </g>
</svg>